<?xml version="1.0" standalone="no"?>
<!DOCTYPE svg PUBLIC "-//W3C//DTD SVG 1.1//EN" "http://www.w3.org/Graphics/SVG/1.1/DTD/svg11.dtd" >
<svg xmlns="http://www.w3.org/2000/svg" viewBox="0 0 512 1024" preserveAspectRatio="none">
  <g transform="matrix(1 0 0 -1 0 768)">
   <path fill="currentColor"
d="M512 256c0 -4 -3 -7 -5 -8c-107 -21 -185 -59 -207 -108v-281c-39 -92 -254 -115 -291 -115c-5 0 -9 2 -9 9s4 9 9 9c34 0 171 28 208 97v281c35 74 154 100 248 116c-94 16 -213 42 -248 116v281c-37 69 -174 97 -208 97c-5 0 -9 2 -9 9s4 9 9 9c37 0 252 -23 291 -115
v-281c22 -49 100 -87 207 -108c2 -1 5 -4 5 -8z" />
  </g>
</svg>
